<svg width="48" height="48" viewBox="0 0 48 48" fill="none" xmlns="http://www.w3.org/2000/svg">
<path fill-rule="evenodd" clip-rule="evenodd" d="M10 0C4.47717 0 0 4.47717 0 10V38C0 43.5228 4.47717 48 10 48H38C43.5228 48 48 43.5228 48 38V10C48 4.47717 43.5228 0 38 0H10ZM39.1151 13.8261H34.6921C33.2263 13.8261 32.0383 14.9939 32.0383 16.4348V20.7826H39.1151C39.6423 20.7826 40.0529 21.233 39.9945 21.7478L39.3063 27.8348C39.2567 28.2756 38.8781 28.6087 38.4269 28.6087H32.0383V45.1304C32.0383 45.6104 31.642 46 31.1537 46H24.9614C24.4731 46 24.0769 45.6104 24.0769 45.1304V28.6087H17.8846C17.3964 28.6087 17 28.2191 17 27.7391V21.6522C17 21.1722 17.3964 20.7826 17.8846 20.7826H24.0769V15.0156C24.0769 9.20001 27.6152 6 33.0476 6C35.0248 6 37.774 6.13306 39.1815 6.23132C39.6433 6.26349 39.9998 6.64264 39.9998 7.09827V12.9565C39.9998 13.4365 39.6035 13.8261 39.1151 13.8261Z" fill="#D9D9D9"/>
</svg>
