<svg width="48" height="48" viewBox="0 0 48 48" fill="none" xmlns="http://www.w3.org/2000/svg">
<path fill-rule="evenodd" clip-rule="evenodd" d="M10 0C4.47717 0 0 4.47717 0 10V38C0 43.5228 4.47717 48 10 48H38C43.5228 48 48 43.5228 48 38V10C48 4.47717 43.5228 0 38 0H10ZM5 16.5C5 10.1664 10.1664 5 16.5 5H31.5C37.8328 5 43 10.1662 43 16.5V31.5C43 37.8329 37.8329 43 31.5 43H16.5C10.1663 43 5 37.8328 5 31.5V16.5ZM31.5 8H16.5C11.7876 8 8 11.7876 8 16.5V31.5C8 36.2112 11.7878 40 16.5 40H31.5C36.2111 40 40 36.2111 40 31.5V16.5C40 11.7878 36.2113 8 31.5 8ZM32 14C32 12.895 32.895 12 34 12C35.105 12 36 12.895 36 14C36 15.105 35.105 16 34 16C32.895 16 32 15.105 32 14ZM14 24C14 18.4952 18.4951 14 24 14C29.5049 14 34 18.4952 34 24C34 29.5048 29.5049 34 24 34C18.4951 34 14 29.5048 14 24ZM31 24C31 20.1168 27.8832 17 24 17C20.1168 17 17 20.1168 17 24C17 27.8832 20.1168 31 24 31C27.8832 31 31 27.8832 31 24Z" fill="#D9D9D9"/>
</svg>
