<svg width="48" height="48" viewBox="0 0 48 48" fill="none" xmlns="http://www.w3.org/2000/svg">
<path fill-rule="evenodd" clip-rule="evenodd" d="M10 0C4.47715 0 0 4.47715 0 10V38C0 43.5228 4.47715 48 10 48H38C43.5228 48 48 43.5229 48 38V10C48 4.47715 43.5229 0 38 0H10ZM6 10.2857C6 7.92821 7.92821 6 10.2857 6H37.7143C40.0718 6 42 7.92821 42 10.2857V37.7143C42 40.0718 40.0718 42 37.7143 42H10.2857C7.92821 42 6 40.0718 6 37.7143V10.2857ZM37.7143 7.71429H10.2857C8.85293 7.71429 7.71429 8.85293 7.71429 10.2857V37.7143C7.71429 39.1471 8.85293 40.2857 10.2857 40.2857H37.7143C39.1471 40.2857 40.2857 39.1471 40.2857 37.7143V10.2857C40.2857 8.85293 39.1471 7.71429 37.7143 7.71429ZM24.2885 11.3933C24.4492 11.233 24.6669 11.1429 24.894 11.1429H28.3359C28.5478 11.143 28.7522 11.2216 28.9095 11.3635C29.0669 11.5054 29.1661 11.7005 29.1881 11.9113C29.4684 14.5819 31.6171 16.6816 34.3125 16.875C34.5286 16.8907 34.7308 16.9876 34.8783 17.1463C35.0259 17.3051 35.1078 17.5138 35.1077 17.7305V21.7333C35.1077 21.947 35.0279 22.1531 34.8839 22.311C34.7399 22.469 34.5421 22.5674 34.3292 22.5871C34.1163 22.6067 33.8936 22.6205 33.6596 22.6205C31.9436 22.6205 30.3897 21.9888 29.1429 20.9916V28.7478C29.1429 33.2474 25.476 36.9141 20.9766 36.9141C16.477 36.9141 12.8103 33.2474 12.8103 28.7478C12.8103 24.2482 16.477 20.5815 20.9766 20.5815C21.1335 20.5815 21.2691 20.5914 21.3842 20.5998C21.4187 20.6023 21.4513 20.6046 21.4821 20.6066C21.6998 20.6202 21.904 20.7163 22.0533 20.8752C22.2026 21.0342 22.2857 21.244 22.2857 21.4621V25.0631C22.2859 25.1843 22.2603 25.3042 22.2106 25.4149C22.161 25.5255 22.0885 25.6244 21.9978 25.7049C21.9071 25.7855 21.8004 25.8459 21.6847 25.8821C21.569 25.9183 21.4469 25.9296 21.3265 25.9152C21.2631 25.9076 21.2087 25.9005 21.1623 25.8945C21.072 25.8828 21.0123 25.875 20.9766 25.875C19.379 25.875 18.1038 27.1502 18.1038 28.7478C18.1038 30.3453 19.379 31.6222 20.9766 31.6222C22.5869 31.6222 24 30.3506 24 28.7946C24 28.7116 24.0016 27.7129 24.005 26.1345C24.0066 25.3773 24.0087 24.501 24.011 23.5628C24.0134 22.5453 24.0161 21.4551 24.0184 20.3655C24.0274 16.1771 24.0368 11.9983 24.0368 11.9983C24.0373 11.7713 24.1278 11.5537 24.2885 11.3933ZM27.7048 12.8571H25.7494C25.749 13.0717 25.748 13.4857 25.7467 14.0593C25.7436 15.4316 25.7384 17.7171 25.7327 20.3689C25.7304 21.4564 25.7277 22.5445 25.7253 23.5603C25.723 24.5007 25.7209 25.3791 25.7193 26.1378C25.7166 27.3664 25.7151 28.3174 25.7145 28.6589C25.7144 28.7561 25.7143 28.8039 25.7143 28.7946C25.7143 31.3598 23.4873 33.3365 20.9766 33.3365C18.453 33.3365 16.3895 31.2714 16.3895 28.7478C16.3895 26.3676 18.2455 24.4592 20.5714 24.2427V22.3778C17.1995 22.597 14.5246 25.3187 14.5246 28.7478C14.5246 32.3207 17.4036 35.1998 20.9766 35.1998C24.5497 35.1998 27.4286 32.3207 27.4286 28.7478V18.8605C27.4283 18.6759 27.4876 18.4961 27.5976 18.348C27.7077 18.1998 27.8627 18.0911 28.0395 18.038C28.2163 17.985 28.4055 17.9904 28.579 18.0536C28.7524 18.1167 28.9009 18.2341 29.0022 18.3884C29.9498 19.83 31.5601 20.7445 33.3934 20.8376V18.3817C30.5372 17.8409 28.3278 15.6846 27.7048 12.8571Z" fill="#D9D9D9"/>
</svg>
