<svg width="48" height="48" viewBox="0 0 48 48" fill="none" xmlns="http://www.w3.org/2000/svg">
<path fill-rule="evenodd" clip-rule="evenodd" d="M10 0C4.47715 0 0 4.47715 0 10V38C0 43.5228 4.47715 48 10 48H38C43.5228 48 48 43.5229 48 38V10C48 4.47715 43.5229 0 38 0H10ZM8.19477 9.17523C11.4295 8.49 17.5048 8 23.9743 8C30.44 8 36.4157 8.49 39.8457 8.98C42.0048 9.47 43.8652 11.0395 44.2557 13.1948C44.7457 15.6448 45.2357 19.1743 45.2357 23.5843C45.14 27.9943 44.65 31.52 44.2557 33.97C43.8652 36.2248 42.0048 37.6948 39.8457 38.1848C36.4157 38.87 30.5395 39.36 24.07 39.36C17.6005 39.36 11.7243 38.87 8.29047 38.1848C6.13523 37.6948 4.27477 36.1252 3.88047 33.97C3.39047 31.52 3 28.09 3 23.68C3 19.27 3.3943 15.7405 3.78477 13.39C4.17523 11.1352 6.03953 9.66523 8.19477 9.17523ZM39.4552 11.0357C36.7105 10.5457 31.0295 9.96 23.9743 9.96C17.7995 9.96 11.82 10.45 8.58523 11.1352C8.54321 11.152 8.48968 11.1716 8.42673 11.1947C7.75562 11.441 6.01425 12.0799 5.74477 13.7843C5.3543 15.84 4.96 19.1705 4.96 23.68C4.96 27.3052 5.25477 30.9305 6.03953 33.6752C6.23477 34.95 7.41 35.93 8.88 36.3243C12.31 37.1052 18.2857 37.4957 24.1657 37.4957C30.0457 37.4957 35.9257 37.0095 39.4552 36.3243C39.476 36.3173 39.4985 36.3098 39.5226 36.3017C40.1809 36.0821 42.015 35.4701 42.2957 33.6752C42.69 31.2252 43.18 27.7952 43.2757 23.5843C43.2757 20.1543 42.8852 16.82 42.2957 13.6848C42.1005 12.41 40.9252 11.43 39.4552 11.0357ZM32.4 23.68L18.68 31.52V15.84L32.4 23.68ZM28.48 23.68L20.64 19.1743V28.1857L28.48 23.68Z" fill="#D9D9D9"/>
</svg>
